<svg id="SvgjsSvg1001" width="288" height="288" xmlns="http://www.w3.org/2000/svg" version="1.1" xmlns:xlink="http://www.w3.org/1999/xlink" xmlns:svgjs="http://svgjs.com/svgjs"><defs id="SvgjsDefs1002"></defs><g id="SvgjsG1008"><svg xmlns="http://www.w3.org/2000/svg" viewBox="0 0 600 592" width="288" height="288"><path fill="#33b27a" d="M0 0 C54.78 0 109.56 0 166 0 C166.33 52.8 166.66 105.6 167 160 C180.53 153.07 194.06 146.14 208 139 C227.375 129.3125 227.375 129.3125 235.7109375 125.17578125 C241.52488137 122.27140498 247.28580988 119.2828754 253.02734375 116.23828125 C264.31681788 110.25640981 275.75108407 104.56934646 287.1875 98.875 C289.31715213 97.8126901 291.44670994 96.7501911 293.57617188 95.6875 C298.7163672 93.12282807 303.85770435 90.56045784 309 88 C311.42739126 90.33512633 312.86970861 92.3960804 314.34765625 95.4375 C314.78207031 96.32115234 315.21648438 97.20480469 315.6640625 98.11523438 C316.12554688 99.06720703 316.58703125 100.01917969 317.0625 101 C318.06213679 103.03207006 319.06346417 105.06330926 320.06640625 107.09375 C320.81494873 108.6096875 320.81494873 108.6096875 321.57861328 110.15625 C323.48667514 113.97368466 325.48527468 117.73812665 327.5 121.5 C332.69122452 131.23694196 337.58161074 141.12356466 342.5 151 C349.61561557 165.31885906 349.61561557 165.31885906 357 179.5 C360.33829976 185.78029448 363.58232045 192.10081999 366.75 198.46875 C367.38808594 199.74721802 367.38808594 199.74721802 368.0390625 201.05151367 C370.22386257 205.42959769 372.40276617 209.81057766 374.578125 214.19335938 C374.98579102 215.01292114 375.39345703 215.83248291 375.81347656 216.67687988 C376.58802788 218.2341902 377.36089205 219.79234111 378.13183594 221.35144043 C379.62787872 224.35753842 381.13485063 227.20227594 383 230 C383.07905064 232.33199388 383.08798769 234.66832622 383 237 C382.06953857 237.4626123 381.13907715 237.92522461 380.18041992 238.40185547 C376.62495815 240.1703223 373.07096195 241.94171872 369.51733398 243.71386719 C367.9985075 244.47081351 366.47931893 245.2270339 364.9597168 245.98242188 C356.48003722 250.19830776 348.04303007 254.47874354 339.67578125 258.9140625 C328.66082743 264.74964668 317.49969854 270.28284188 306.33398438 275.82275391 C303.68008937 277.14045269 301.0272144 278.46017198 298.375 279.78125 C297.51753174 280.20801025 296.66006348 280.63477051 295.77661133 281.07446289 C288.7426277 284.59178684 281.78320075 288.24290033 274.86279297 291.9786377 C274.1204541 292.37562866 273.37811523 292.77261963 272.61328125 293.18164062 C271.96141846 293.5337561 271.30955566 293.88587158 270.63793945 294.24865723 C269 295 269 295 267 295 C267 295.66 267 296.32 267 297 C267.81758789 297.24355225 268.63517578 297.48710449 269.47753906 297.73803711 C273.64407876 299.23074876 277.44049329 301.14873062 281.359375 303.19140625 C282.1689566 303.60871002 282.97853821 304.02601379 283.81265259 304.45596313 C285.553821 305.35381162 287.29403666 306.25350972 289.03338623 307.15487671 C293.65040561 309.54720207 298.27447197 311.92582289 302.8984375 314.3046875 C304.30127487 315.02687721 304.30127487 315.02687721 305.73245239 315.76365662 C314.57750995 320.31062313 323.46954175 324.76031817 332.375 329.1875 C341.90969784 333.9307239 351.41099256 338.72066845 360.8112793 343.72680664 C368.13706874 347.62619649 375.55924508 351.32580654 383 355 C383.71090071 361.75355674 381.37452579 365.8760685 378.125 371.6875 C377.02245891 373.72593082 375.92376636 375.76644609 374.828125 377.80859375 C374.22033203 378.93894043 373.61253906 380.06928711 372.98632812 381.23388672 C369.5426048 387.71215886 366.31559828 394.30249855 363.05441284 400.87387085 C357.80733395 411.44500986 352.54879757 421.99923366 346.97607422 432.40332031 C342.3122765 441.18107854 337.93099102 450.10332791 333.5 459 C318.26845255 489.57448607 318.26845255 489.57448607 310 504 C296.89173203 497.86553708 283.89608352 491.52715178 270.95703125 485.04370117 C268.00409172 483.56454958 265.04903368 482.08969586 262.09375 480.61523438 C252.38642286 475.76308698 242.73052744 470.83284488 233.14337158 465.7474823 C223.43404751 460.61488937 213.58656175 455.75778813 203.75 450.875 C199.97271448 448.99988436 196.19690017 447.12184885 192.421875 445.2421875 C191.59645203 444.83362518 190.77102905 444.42506287 189.92059326 444.00411987 C182.18894433 440.1538976 174.63264027 436.07074148 167 432 C166.67 484.8 166.34 537.6 166 592 C111.22 592 56.44 592 0 592 C-0.33 539.2 -0.66 486.4 -1 432 C-21.31068382 442.14609832 -21.31068382 442.14609832 -41.43359375 452.60546875 C-50.37567369 457.32270073 -59.46374531 461.75846338 -68.52050781 466.25 C-78.3570527 471.13203856 -88.13720376 476.09554453 -97.83992004 481.23873901 C-106.88035111 486.01808449 -116.03217263 490.57085247 -125.1875 495.125 C-126.93173634 495.99459971 -128.67587731 496.86439073 -130.41992188 497.734375 C-134.61219293 499.82510815 -138.80571882 501.91330254 -143 504 C-145.18810342 501.96765551 -146.64604219 500.09263523 -147.99853516 497.43530273 C-148.36450302 496.72316116 -148.73047089 496.01101959 -149.10752869 495.27729797 C-149.49743484 494.50387558 -149.887341 493.73045319 -150.2890625 492.93359375 C-150.70495132 492.1197673 -151.12084015 491.30594086 -151.54933167 490.467453 C-152.91364438 487.79369057 -154.26941071 485.11569429 -155.625 482.4375 C-156.57033088 480.58036859 -157.51605411 478.72343684 -158.4621582 476.86669922 C-165.0911487 463.83993505 -171.65538205 450.78010674 -178.14111328 437.68139648 C-181.60283579 430.7031381 -185.15263137 423.78123142 -188.80078125 416.8984375 C-194.38451552 406.35685803 -199.69691493 395.68478983 -205 385 C-206.8518489 381.26967514 -208.70639124 377.54070672 -210.5625 373.8125 C-210.98015625 372.96888916 -211.3978125 372.12527832 -211.828125 371.25610352 C-212.21613281 370.47678467 -212.60414063 369.69746582 -213.00390625 368.89453125 C-213.34236572 368.21237549 -213.6808252 367.53021973 -214.02954102 366.82739258 C-215.09056153 364.75620405 -215.09056153 364.75620405 -217 362 C-217.07905064 359.66800612 -217.08798769 357.33167378 -217 355 C-216.13012451 354.56768066 -215.26024902 354.13536133 -214.36401367 353.68994141 C-211.03217789 352.03330492 -207.70181928 350.37371578 -204.37182617 348.71337891 C-202.9500063 348.00493216 -201.52782421 347.29721175 -200.10522461 346.59033203 C-191.91001625 342.51749119 -183.76240034 338.3707448 -175.67578125 334.0859375 C-165.03688755 328.45185168 -154.26402056 323.09839067 -143.47949219 317.75 C-140.96458848 316.50181204 -138.45071345 315.25158764 -135.9375 314 C-135.12015381 313.59330078 -134.30280762 313.18660156 -133.46069336 312.76757812 C-126.66627254 309.37003226 -119.945868 305.83903584 -113.26538086 302.22265625 C-109.24870813 300.07314831 -105.39705868 298.28422031 -101 297 C-101 296.34 -101 295.68 -101 295 C-101.78761719 294.77143311 -102.57523437 294.54286621 -103.38671875 294.30737305 C-108.07731899 292.61019978 -112.3878304 290.37334095 -116.8125 288.08203125 C-117.76646667 287.59253494 -118.72043335 287.10303864 -119.70330811 286.59870911 C-121.74547852 285.55038545 -123.78669028 284.50019256 -125.82702637 283.44830322 C-131.15647608 280.70074462 -136.4925775 277.96616168 -141.828125 275.23046875 C-142.88219543 274.68958618 -143.93626587 274.14870361 -145.02227783 273.59143066 C-153.56896828 269.20980543 -162.14810448 264.8969963 -170.75 260.625 C-179.47408756 256.28892426 -188.14794159 251.87692158 -196.75024414 247.30371094 C-203.44105891 243.7476682 -210.20307036 240.34856892 -217 237 C-217.68136101 230.32086906 -215.47048516 226.31134392 -212.25 220.5625 C-211.14953692 218.52956261 -210.05354496 216.49420143 -208.9609375 214.45703125 C-208.03039551 212.72380615 -208.03039551 212.72380615 -207.08105469 210.95556641 C-202.40643018 202.1411333 -198.052272 193.15573801 -193.6192627 184.21829224 C-189.18721891 175.28753351 -184.71098682 166.39009616 -180.0390625 157.58203125 C-176.52837194 150.9618952 -173.11523078 144.30075003 -169.78125 137.58984375 C-169.34660431 136.71504364 -168.91195862 135.84024353 -168.46414185 134.93893433 C-166.69854738 131.38042912 -164.93596483 127.8204535 -163.17724609 124.25854492 C-157.1082763 111.97824125 -150.76561516 99.91158856 -144 88 C-132.05210546 93.60684721 -120.17345742 99.33231889 -108.375 105.24731445 C-106.00148633 106.43675515 -103.62585631 107.62188744 -101.25 108.80664062 C-93.30747617 112.77637152 -85.40877338 116.81574625 -77.5625 120.97265625 C-67.79036101 126.14865519 -57.90640893 131.08709669 -48 136 C-37.0819604 141.41460313 -26.20427134 146.88369629 -15.44116211 152.6015625 C-14.34880249 153.18164062 -14.34880249 153.18164062 -13.234375 153.7734375 C-12.60756836 154.10778809 -11.98076172 154.44213867 -11.33496094 154.78662109 C-7.9111731 156.56581657 -4.45112848 158.27443576 -1 160 C-0.505 80.8 -0.505 80.8 0 0 Z " transform="translate(217)" class="svgShape color00ff00-0 selectable"></path><path fill="#33b27a" d="M0 0 C54.78 0 109.56 0 166 0 C166.33 52.8 166.66 105.6 167 160 C180.53 153.07 194.06 146.14 208 139 C227.375 129.3125 227.375 129.3125 235.7109375 125.17578125 C241.52488137 122.27140498 247.28580988 119.2828754 253.02734375 116.23828125 C264.31681788 110.25640981 275.75108407 104.56934646 287.1875 98.875 C289.31715213 97.8126901 291.44670994 96.7501911 293.57617188 95.6875 C298.7163672 93.12282807 303.85770435 90.56045784 309 88 C311.42739126 90.33512633 312.86970861 92.3960804 314.34765625 95.4375 C314.78207031 96.32115234 315.21648438 97.20480469 315.6640625 98.11523438 C316.12554688 99.06720703 316.58703125 100.01917969 317.0625 101 C318.06213679 103.03207006 319.06346417 105.06330926 320.06640625 107.09375 C320.81494873 108.6096875 320.81494873 108.6096875 321.57861328 110.15625 C323.48667514 113.97368466 325.48527468 117.73812665 327.5 121.5 C332.69122452 131.23694196 337.58161074 141.12356466 342.5 151 C349.61561557 165.31885906 349.61561557 165.31885906 357 179.5 C360.33829976 185.78029448 363.58232045 192.10081999 366.75 198.46875 C367.38808594 199.74721802 367.38808594 199.74721802 368.0390625 201.05151367 C370.22386257 205.42959769 372.40276617 209.81057766 374.578125 214.19335938 C374.98579102 215.01292114 375.39345703 215.83248291 375.81347656 216.67687988 C376.58802788 218.2341902 377.36089205 219.79234111 378.13183594 221.35144043 C379.62787872 224.35753842 381.13485063 227.20227594 383 230 C383.07905064 232.33199388 383.08798769 234.66832622 383 237 C382.06953857 237.4626123 381.13907715 237.92522461 380.18041992 238.40185547 C376.62495815 240.1703223 373.07096195 241.94171872 369.51733398 243.71386719 C367.9985075 244.47081351 366.47931893 245.2270339 364.9597168 245.98242188 C356.48003722 250.19830776 348.04303007 254.47874354 339.67578125 258.9140625 C328.66082743 264.74964668 317.49969854 270.28284188 306.33398438 275.82275391 C303.68008937 277.14045269 301.0272144 278.46017198 298.375 279.78125 C297.51753174 280.20801025 296.66006348 280.63477051 295.77661133 281.07446289 C288.7426277 284.59178684 281.78320075 288.24290033 274.86279297 291.9786377 C274.1204541 292.37562866 273.37811523 292.77261963 272.61328125 293.18164062 C271.96141846 293.5337561 271.30955566 293.88587158 270.63793945 294.24865723 C269 295 269 295 267 295 C267 295.66 267 296.32 267 297 C267.81758789 297.24355225 268.63517578 297.48710449 269.47753906 297.73803711 C273.64407876 299.23074876 277.44049329 301.14873062 281.359375 303.19140625 C282.1689566 303.60871002 282.97853821 304.02601379 283.81265259 304.45596313 C285.553821 305.35381162 287.29403666 306.25350972 289.03338623 307.15487671 C293.65040561 309.54720207 298.27447197 311.92582289 302.8984375 314.3046875 C304.30127487 315.02687721 304.30127487 315.02687721 305.73245239 315.76365662 C314.57750995 320.31062313 323.46954175 324.76031817 332.375 329.1875 C341.90969784 333.9307239 351.41099256 338.72066845 360.8112793 343.72680664 C368.13706874 347.62619649 375.55924508 351.32580654 383 355 C383.71090071 361.75355674 381.37452579 365.8760685 378.125 371.6875 C377.02245891 373.72593082 375.92376636 375.76644609 374.828125 377.80859375 C374.22033203 378.93894043 373.61253906 380.06928711 372.98632812 381.23388672 C369.5426048 387.71215886 366.31559828 394.30249855 363.05441284 400.87387085 C357.80733395 411.44500986 352.54879757 421.99923366 346.97607422 432.40332031 C342.3122765 441.18107854 337.93099102 450.10332791 333.5 459 C318.26845255 489.57448607 318.26845255 489.57448607 310 504 C296.89173203 497.86553708 283.89608352 491.52715178 270.95703125 485.04370117 C268.00409172 483.56454958 265.04903368 482.08969586 262.09375 480.61523438 C252.38642286 475.76308698 242.73052744 470.83284488 233.14337158 465.7474823 C223.43404751 460.61488937 213.58656175 455.75778813 203.75 450.875 C199.97271448 448.99988436 196.19690017 447.12184885 192.421875 445.2421875 C191.59645203 444.83362518 190.77102905 444.42506287 189.92059326 444.00411987 C182.18894433 440.1538976 174.63264027 436.07074148 167 432 C166.67 484.8 166.34 537.6 166 592 C111.22 592 56.44 592 0 592 C-0.33 539.2 -0.66 486.4 -1 432 C-21.31068382 442.14609832 -21.31068382 442.14609832 -41.43359375 452.60546875 C-50.37567369 457.32270073 -59.46374531 461.75846338 -68.52050781 466.25 C-78.3570527 471.13203856 -88.13720376 476.09554453 -97.83992004 481.23873901 C-106.88035111 486.01808449 -116.03217263 490.57085247 -125.1875 495.125 C-126.93173634 495.99459971 -128.67587731 496.86439073 -130.41992188 497.734375 C-134.61219293 499.82510815 -138.80571882 501.91330254 -143 504 C-145.18810342 501.96765551 -146.64604219 500.09263523 -147.99853516 497.43530273 C-148.36450302 496.72316116 -148.73047089 496.01101959 -149.10752869 495.27729797 C-149.49743484 494.50387558 -149.887341 493.73045319 -150.2890625 492.93359375 C-150.70495132 492.1197673 -151.12084015 491.30594086 -151.54933167 490.467453 C-152.91364438 487.79369057 -154.26941071 485.11569429 -155.625 482.4375 C-156.57033088 480.58036859 -157.51605411 478.72343684 -158.4621582 476.86669922 C-165.0911487 463.83993505 -171.65538205 450.78010674 -178.14111328 437.68139648 C-181.60283579 430.7031381 -185.15263137 423.78123142 -188.80078125 416.8984375 C-194.38451552 406.35685803 -199.69691493 395.68478983 -205 385 C-206.8518489 381.26967514 -208.70639124 377.54070672 -210.5625 373.8125 C-210.98015625 372.96888916 -211.3978125 372.12527832 -211.828125 371.25610352 C-212.21613281 370.47678467 -212.60414063 369.69746582 -213.00390625 368.89453125 C-213.34236572 368.21237549 -213.6808252 367.53021973 -214.02954102 366.82739258 C-215.09056153 364.75620405 -215.09056153 364.75620405 -217 362 C-217.07905064 359.66800612 -217.08798769 357.33167378 -217 355 C-216.13012451 354.56768066 -215.26024902 354.13536133 -214.36401367 353.68994141 C-211.03217789 352.03330492 -207.70181928 350.37371578 -204.37182617 348.71337891 C-202.9500063 348.00493216 -201.52782421 347.29721175 -200.10522461 346.59033203 C-191.91001625 342.51749119 -183.76240034 338.3707448 -175.67578125 334.0859375 C-165.03688755 328.45185168 -154.26402056 323.09839067 -143.47949219 317.75 C-140.96458848 316.50181204 -138.45071345 315.25158764 -135.9375 314 C-135.12015381 313.59330078 -134.30280762 313.18660156 -133.46069336 312.76757812 C-126.66627254 309.37003226 -119.945868 305.83903584 -113.26538086 302.22265625 C-109.24870813 300.07314831 -105.39705868 298.28422031 -101 297 C-101 296.34 -101 295.68 -101 295 C-101.78761719 294.77143311 -102.57523437 294.54286621 -103.38671875 294.30737305 C-108.07731899 292.61019978 -112.3878304 290.37334095 -116.8125 288.08203125 C-117.76646667 287.59253494 -118.72043335 287.10303864 -119.70330811 286.59870911 C-121.74547852 285.55038545 -123.78669028 284.50019256 -125.82702637 283.44830322 C-131.15647608 280.70074462 -136.4925775 277.96616168 -141.828125 275.23046875 C-142.88219543 274.68958618 -143.93626587 274.14870361 -145.02227783 273.59143066 C-153.56896828 269.20980543 -162.14810448 264.8969963 -170.75 260.625 C-179.47408756 256.28892426 -188.14794159 251.87692158 -196.75024414 247.30371094 C-203.44105891 243.7476682 -210.20307036 240.34856892 -217 237 C-217.68136101 230.32086906 -215.47048516 226.31134392 -212.25 220.5625 C-211.14953692 218.52956261 -210.05354496 216.49420143 -208.9609375 214.45703125 C-208.03039551 212.72380615 -208.03039551 212.72380615 -207.08105469 210.95556641 C-202.40643018 202.1411333 -198.052272 193.15573801 -193.6192627 184.21829224 C-189.18721891 175.28753351 -184.71098682 166.39009616 -180.0390625 157.58203125 C-176.52837194 150.9618952 -173.11523078 144.30075003 -169.78125 137.58984375 C-169.34660431 136.71504364 -168.91195862 135.84024353 -168.46414185 134.93893433 C-166.69854738 131.38042912 -164.93596483 127.8204535 -163.17724609 124.25854492 C-157.1082763 111.97824125 -150.76561516 99.91158856 -144 88 C-132.05210546 93.60684721 -120.17345742 99.33231889 -108.375 105.24731445 C-106.00148633 106.43675515 -103.62585631 107.62188744 -101.25 108.80664062 C-93.30747617 112.77637152 -85.40877338 116.81574625 -77.5625 120.97265625 C-67.79036101 126.14865519 -57.90640893 131.08709669 -48 136 C-37.0819604 141.41460313 -26.20427134 146.88369629 -15.44116211 152.6015625 C-14.34880249 153.18164062 -14.34880249 153.18164062 -13.234375 153.7734375 C-12.60756836 154.10778809 -11.98076172 154.44213867 -11.33496094 154.78662109 C-7.9111731 156.56581657 -4.45112848 158.27443576 -1 160 C-0.505 80.8 -0.505 80.8 0 0 Z M8 7 C8 61.78 8 116.56 8 173 C-32 153 -32 153 -51 143 C-54.5979979 141.17119656 -58.1956681 139.35226875 -61.8125 137.5625 C-62.71718018 137.11205322 -63.62186035 136.66160645 -64.55395508 136.19750977 C-67.36829107 134.79629251 -70.18394426 133.39775743 -73 132 C-84.5141018 126.28494218 -95.99213144 120.52524138 -107.35066223 114.50588989 C-114.24494424 110.85550429 -121.19925875 107.34203442 -128.1875 103.875 C-129.9190332 103.01261719 -129.9190332 103.01261719 -131.68554688 102.1328125 C-134.45608519 100.75329135 -137.22755056 99.37567507 -140 98 C-142.95517226 100.55964971 -144.39451748 103.43292898 -146.11938477 106.9140625 C-146.41587418 107.50820953 -146.71236359 108.10235657 -147.01783752 108.71450806 C-147.99796039 110.68194288 -148.96958333 112.65345402 -149.94140625 114.625 C-150.63002182 116.01038374 -151.31923629 117.39546993 -152.00901794 118.78027344 C-153.83021106 122.43979406 -155.64455219 126.10266682 -157.45709229 129.76647949 C-160.67324619 136.26484712 -163.90083467 142.75754656 -167.12890625 149.25 C-167.47701544 149.95064449 -167.82512463 150.65128899 -168.18378258 151.37316513 C-172.51046519 160.07757381 -176.90212397 168.73985531 -181.46936035 177.32107544 C-186.15244565 186.12877537 -190.63072628 195.03929263 -195.09887695 203.95751953 C-196.58696782 206.92377238 -198.0835466 209.88565466 -199.58007812 212.84765625 C-200.53437564 214.74973846 -201.48817128 216.65207257 -202.44140625 218.5546875 C-202.88609756 219.43172333 -203.33078888 220.30875916 -203.78895569 221.21237183 C-204.19705978 222.03158112 -204.60516388 222.85079041 -205.02563477 223.69482422 C-205.56330223 224.7646907 -205.56330223 224.7646907 -206.11183167 225.85617065 C-207.08990811 228.21701701 -207.57549766 230.48532112 -208 233 C-207.1495813 233.42128174 -207.1495813 233.42128174 -206.28198242 233.85107422 C-203.5826412 235.19001699 -200.8850851 236.53252286 -198.1875 237.875 C-197.29740234 238.31585938 -196.40730469 238.75671875 -195.49023438 239.2109375 C-189.29666249 242.29700792 -183.16535796 245.48794025 -177.05078125 248.7265625 C-166.78535575 254.15643281 -156.40243281 259.33879295 -146 264.5 C-133.98870213 270.45945163 -122.04165059 276.51102248 -110.19189453 282.78613281 C-105.13814962 285.46130371 -100.05106117 288.06612197 -94.9375 290.625 C-93.66036133 291.27275391 -93.66036133 291.27275391 -92.35742188 291.93359375 C-91.1421582 292.54267578 -91.1421582 292.54267578 -89.90234375 293.1640625 C-88.84261353 293.69700928 -88.84261353 293.69700928 -87.76147461 294.24072266 C-86.01358477 295.1319462 -86.01358477 295.1319462 -84 295 C-84 295.66 -84 296.32 -84 297 C-84.83829346 297.25652344 -85.67658691 297.51304687 -86.5402832 297.77734375 C-90.29950501 299.10584441 -93.80492655 300.76769817 -97.35546875 302.5625 C-98.05658279 302.91328613 -98.75769684 303.26407227 -99.48005676 303.62548828 C-100.96609033 304.37001126 -102.45115476 305.11647138 -103.93530273 305.86474609 C-106.1337009 306.97288175 -108.33507675 308.07488897 -110.53710938 309.17578125 C-118.17042084 313.00221136 -125.7555226 316.90901838 -133.30078125 320.90625 C-144.32450218 326.74239166 -155.49312173 332.27927963 -166.66601562 337.82275391 C-178.57345218 343.73497525 -190.40105647 349.77140811 -202.13500977 356.02160645 C-204.07748021 357.04064694 -206.03503618 358.02514161 -208 359 C-207.39338982 362.78971073 -206.28588446 365.79868962 -204.56665039 369.22314453 C-204.05844254 370.24256134 -203.55023468 371.26197815 -203.02662659 372.31228638 C-202.47256638 373.40806 -201.91850616 374.50383362 -201.34765625 375.6328125 C-200.77349472 376.77926239 -200.19933319 377.92571228 -199.60777283 379.10690308 C-198.3882338 381.54137956 -197.16480475 383.97384487 -195.93823242 386.40478516 C-194.39666709 389.46009478 -192.861744 392.51867308 -191.32941341 395.57862282 C-185.53733109 407.14303698 -179.68948219 418.67189374 -173.62469482 430.09588623 C-168.5081827 439.76477618 -163.67618849 449.57729253 -158.8125 459.375 C-150.15956587 476.81901207 -150.15956587 476.81901207 -141 494 C-130.26326139 488.99383393 -119.59976166 483.85294904 -109 478.5625 C-107.99469238 478.06210205 -106.98938477 477.5617041 -105.95361328 477.04614258 C-99.61236087 473.86948188 -93.32977723 470.59686594 -87.0625 467.27734375 C-75.53960314 461.18213874 -63.86418906 455.39976595 -52.18847656 449.60449219 C-42.57453756 444.8293126 -32.98627324 440.02494641 -23.5 435 C-13.0784415 429.51496921 -2.5335443 424.26677215 8 419 C8 473.78 8 528.56 8 585 C57.5 585 107 585 158 585 C158 530.22 158 475.44 158 419 C168.75760093 424.37880046 179.40476994 429.71696956 190.01586914 435.3359375 C199.58766922 440.40078586 209.30059723 445.18567331 219 450 C230.31393127 455.6157026 241.59252518 461.27315486 252.7512207 467.19212341 C261.78488263 471.96984355 270.92337254 476.53686779 280.06738281 481.09887695 C283.05425951 482.58958007 286.03891644 484.08466528 289.0234375 485.58007812 C290.93216312 486.53411139 292.84101244 487.48789723 294.75 488.44140625 C295.6373584 488.88609756 296.5247168 489.33078888 297.43896484 489.78895569 C298.2583252 490.19705978 299.07768555 490.60516388 299.921875 491.02563477 C300.63956055 491.38407974 301.35724609 491.74252472 302.09667969 492.11183167 C304.14551051 493.11217218 304.14551051 493.11217218 307 494 C307.25056152 493.49364014 307.50112305 492.98728027 307.75927734 492.46557617 C308.96211557 490.03835229 310.16857956 487.61294527 311.375 485.1875 C311.76816406 484.39279297 312.16132812 483.59808594 312.56640625 482.77929688 C315.53331843 476.82265012 318.61302716 470.93153415 321.7265625 465.05078125 C326.98069755 455.11381121 332.0061337 445.06966321 337 435 C342.31990743 424.27290542 347.70344384 413.59242509 353.30685425 403.01025391 C357.30291555 395.454736 361.18702286 387.84570439 365.01757812 380.20507812 C366.15455792 377.9411448 367.30000873 375.68160661 368.4453125 373.421875 C369.17499751 371.96901022 369.90418496 370.5158954 370.6328125 369.0625 C370.9732962 368.39387939 371.31377991 367.72525879 371.6645813 367.03637695 C373.09799069 364.15559471 374 362.26400205 374 359 C373.13012451 358.56768066 372.26024902 358.13536133 371.36401367 357.68994141 C368.03217789 356.03330492 364.70181928 354.37371578 361.37182617 352.71337891 C359.9500063 352.00493216 358.52782421 351.29721175 357.10522461 350.59033203 C348.95167041 346.5381924 340.84531913 342.41329805 332.80078125 338.1484375 C322.29175286 332.58165746 311.65178894 327.28704633 301 322 C289.38245211 316.23359641 277.7922817 310.4354639 266.33911133 304.34741211 C258.47136114 299.42918412 258.47136114 299.42918412 250 297 C250 296.34 250 295.68 250 295 C250.77988281 294.773125 251.55976563 294.54625 252.36328125 294.3125 C257.17235987 292.57689268 261.63116917 290.30871244 266.1875 288 C267.05052734 287.56816406 267.91355469 287.13632812 268.80273438 286.69140625 C274.06274727 284.04452877 279.28262465 281.32745102 284.48591614 278.57128906 C296.82430156 272.0382477 309.3066551 265.81131986 321.81152344 259.60449219 C333.22048518 253.93773674 344.56809701 248.18128858 355.81762695 242.20361328 C361.82095772 239.02150534 367.90529898 236.00260964 374 233 C373.38442515 229.06511175 372.16636141 225.96281172 370.38305664 222.40966797 C369.83480728 221.31016815 369.28655792 220.21066833 368.72169495 219.07785034 C368.11802518 217.88254026 367.51417392 216.68732182 366.91015625 215.4921875 C366.2848853 214.24471144 365.66009248 212.99699563 365.03575134 211.74905396 C363.72205588 209.1262655 362.40446667 206.5054853 361.08374023 203.88623047 C359.42110378 200.58881178 357.76513341 197.28810866 356.11174679 193.98604393 C350.01964861 181.82109692 343.88686369 169.6823886 337.5055542 157.66583252 C332.77503615 148.73594663 328.30255209 139.67745492 323.8125 130.625 C318.37164331 119.65671115 312.90771128 108.72604012 307 98 C303.30182761 99.42387155 299.77053017 101.05145118 296.22607422 102.82226562 C294.51676224 103.6745575 294.51676224 103.6745575 292.7729187 104.54406738 C291.53345793 105.16469434 290.29404894 105.78542472 289.0546875 106.40625 C287.76219401 107.05215909 286.46964122 107.69794953 285.17703247 108.34362793 C282.46128164 109.70076643 279.7462581 111.05934634 277.03173828 112.41894531 C273.61195359 114.13164569 270.19041143 115.84079946 266.76833725 117.54891968 C254.36148665 123.74342875 241.96909169 129.95216266 229.72384644 136.46228027 C219.31759718 141.9801934 208.73819659 147.15912368 198.18847656 152.39550781 C185.91565356 158.49133741 173.71801163 164.70256645 161.62207031 171.14306641 C160.42241421 171.77684018 159.21353829 172.39323086 158 173 C158 118.22 158 63.44 158 7 C108.5 7 59 7 8 7 Z " transform="translate(217)" class="svgShape colorfafffa-1 selectable"></path></svg></g></svg>